<svg id="visual" viewBox="0 0 300 1080" width="300" height="1080" xmlns="http://www.w3.org/2000/svg" xmlns:xlink="http://www.w3.org/1999/xlink" version="1.1"><path d="M233 1080L230 1044C227 1008 221 936 226 864C231 792 247 720 248 648C249 576 235 504 232 432C229 360 237 288 235.5 216C234 144 223 72 217.5 36L212 0L300 0L300 36C300 72 300 144 300 216C300 288 300 360 300 432C300 504 300 576 300 648C300 720 300 792 300 864C300 936 300 1008 300 1044L300 1080Z" fill="#292524"></path><path d="M173 1080L168.5 1044C164 1008 155 936 158.5 864C162 792 178 720 175.5 648C173 576 152 504 149.5 432C147 360 163 288 159.5 216C156 144 133 72 121.5 36L110 0L213 0L218.5 36C224 72 235 144 236.5 216C238 288 230 360 233 432C236 504 250 576 249 648C248 720 232 792 227 864C222 936 228 1008 231 1044L234 1080Z" fill="#571e2b"></path><path d="M53 1080L52.5 1044C52 1008 51 936 50.5 864C50 792 50 720 51 648C52 576 54 504 54.5 432C55 360 54 288 49.5 216C45 144 37 72 33 36L29 0L111 0L122.5 36C134 72 157 144 160.5 216C164 288 148 360 150.5 432C153 504 174 576 176.5 648C179 720 163 792 159.5 864C156 936 165 1008 169.5 1044L174 1080Z" fill="#790258"></path><path d="M0 1080L0 1044C0 1008 0 936 0 864C0 792 0 720 0 648C0 576 0 504 0 432C0 360 0 288 0 216C0 144 0 72 0 36L0 0L30 0L34 36C38 72 46 144 50.5 216C55 288 56 360 55.5 432C55 504 53 576 52 648C51 720 51 792 51.5 864C52 936 53 1008 53.5 1044L54 1080Z" fill="#6b21a8"></path></svg>