<svg id="visual" viewBox="0 0 1920 150" width="1920" height="150" xmlns="http://www.w3.org/2000/svg" xmlns:xlink="http://www.w3.org/1999/xlink" version="1.1"><path d="M0 61L35.5 55.8C71 50.7 142 40.3 213.2 47.2C284.3 54 355.7 78 426.8 81.3C498 84.7 569 67.3 640 71.3C711 75.3 782 100.7 853.2 103.2C924.3 105.7 995.7 85.3 1066.8 78.7C1138 72 1209 79 1280 85.3C1351 91.7 1422 97.3 1493.2 98C1564.3 98.7 1635.7 94.3 1706.8 83.5C1778 72.7 1849 55.3 1884.5 46.7L1920 38L1920 151L1884.5 151C1849 151 1778 151 1706.8 151C1635.7 151 1564.3 151 1493.2 151C1422 151 1351 151 1280 151C1209 151 1138 151 1066.8 151C995.7 151 924.3 151 853.2 151C782 151 711 151 640 151C569 151 498 151 426.8 151C355.7 151 284.3 151 213.2 151C142 151 71 151 35.5 151L0 151Z" fill="#231942" stroke-linecap="round" stroke-linejoin="miter"></path></svg>