<svg id="visual" viewBox="0 0 1920 600" width="1920" height="600" xmlns="http://www.w3.org/2000/svg" xmlns:xlink="http://www.w3.org/1999/xlink" version="1.1"><path d="M0 488L35.5 487.8C71 487.7 142 487.3 213.2 494.8C284.3 502.3 355.7 517.7 426.8 522.7C498 527.7 569 522.3 640 511.3C711 500.3 782 483.7 853.2 480.7C924.3 477.7 995.7 488.3 1066.8 488.2C1138 488 1209 477 1280 470.8C1351 464.7 1422 463.3 1493.2 469.5C1564.3 475.7 1635.7 489.3 1706.8 489.7C1778 490 1849 477 1884.5 470.5L1920 464L1920 601L1884.5 601C1849 601 1778 601 1706.8 601C1635.7 601 1564.3 601 1493.2 601C1422 601 1351 601 1280 601C1209 601 1138 601 1066.8 601C995.7 601 924.3 601 853.2 601C782 601 711 601 640 601C569 601 498 601 426.8 601C355.7 601 284.3 601 213.2 601C142 601 71 601 35.5 601L0 601Z" fill="#5e548e"></path><path d="M0 489L35.5 489.3C71 489.7 142 490.3 213.2 496.8C284.3 503.3 355.7 515.7 426.8 524.2C498 532.7 569 537.3 640 532.5C711 527.7 782 513.3 853.2 510.5C924.3 507.7 995.7 516.3 1066.8 522.8C1138 529.3 1209 533.7 1280 527.5C1351 521.3 1422 504.7 1493.2 499.7C1564.3 494.7 1635.7 501.3 1706.8 502.8C1778 504.3 1849 500.7 1884.5 498.8L1920 497L1920 601L1884.5 601C1849 601 1778 601 1706.8 601C1635.7 601 1564.3 601 1493.2 601C1422 601 1351 601 1280 601C1209 601 1138 601 1066.8 601C995.7 601 924.3 601 853.2 601C782 601 711 601 640 601C569 601 498 601 426.8 601C355.7 601 284.3 601 213.2 601C142 601 71 601 35.5 601L0 601Z" fill="#403567"></path><path d="M0 553L35.5 550.5C71 548 142 543 213.2 538.8C284.3 534.7 355.7 531.3 426.8 531.2C498 531 569 534 640 542.2C711 550.3 782 563.7 853.2 566C924.3 568.3 995.7 559.7 1066.8 552.8C1138 546 1209 541 1280 540.7C1351 540.3 1422 544.7 1493.2 543.5C1564.3 542.3 1635.7 535.7 1706.8 539.7C1778 543.7 1849 558.3 1884.5 565.7L1920 573L1920 601L1884.5 601C1849 601 1778 601 1706.8 601C1635.7 601 1564.3 601 1493.2 601C1422 601 1351 601 1280 601C1209 601 1138 601 1066.8 601C995.7 601 924.3 601 853.2 601C782 601 711 601 640 601C569 601 498 601 426.8 601C355.7 601 284.3 601 213.2 601C142 601 71 601 35.5 601L0 601Z" fill="#231942"></path></svg>