<svg id="visual" viewBox="0 0 1920 600" width="1920" height="600" xmlns="http://www.w3.org/2000/svg" xmlns:xlink="http://www.w3.org/1999/xlink" version="1.1"><path d="M0 417L45.7 424.3C91.3 431.7 182.7 446.3 274.2 453.5C365.7 460.7 457.3 460.3 548.8 451.3C640.3 442.3 731.7 424.7 823 425C914.3 425.3 1005.7 443.7 1097 445C1188.3 446.3 1279.7 430.7 1371.2 430.2C1462.7 429.7 1554.3 444.3 1645.8 451.3C1737.3 458.3 1828.7 457.7 1874.3 457.3L1920 457L1920 601L1874.3 601C1828.7 601 1737.3 601 1645.8 601C1554.3 601 1462.7 601 1371.2 601C1279.7 601 1188.3 601 1097 601C1005.7 601 914.3 601 823 601C731.7 601 640.3 601 548.8 601C457.3 601 365.7 601 274.2 601C182.7 601 91.3 601 45.7 601L0 601Z" fill="#5e548e"></path><path d="M0 478L45.7 476.8C91.3 475.7 182.7 473.3 274.2 472.2C365.7 471 457.3 471 548.8 475.5C640.3 480 731.7 489 823 497.5C914.3 506 1005.7 514 1097 513.2C1188.3 512.3 1279.7 502.7 1371.2 495.2C1462.7 487.7 1554.3 482.3 1645.8 481.5C1737.3 480.7 1828.7 484.3 1874.3 486.2L1920 488L1920 601L1874.3 601C1828.7 601 1737.3 601 1645.8 601C1554.3 601 1462.7 601 1371.2 601C1279.7 601 1188.3 601 1097 601C1005.7 601 914.3 601 823 601C731.7 601 640.3 601 548.8 601C457.3 601 365.7 601 274.2 601C182.7 601 91.3 601 45.7 601L0 601Z" fill="#403567"></path><path d="M0 536L45.7 538.7C91.3 541.3 182.7 546.7 274.2 548.8C365.7 551 457.3 550 548.8 546.8C640.3 543.7 731.7 538.3 823 541.2C914.3 544 1005.7 555 1097 552.5C1188.3 550 1279.7 534 1371.2 526.2C1462.7 518.3 1554.3 518.7 1645.8 524.5C1737.3 530.3 1828.7 541.7 1874.3 547.3L1920 553L1920 601L1874.3 601C1828.7 601 1737.3 601 1645.8 601C1554.3 601 1462.7 601 1371.2 601C1279.7 601 1188.3 601 1097 601C1005.7 601 914.3 601 823 601C731.7 601 640.3 601 548.8 601C457.3 601 365.7 601 274.2 601C182.7 601 91.3 601 45.7 601L0 601Z" fill="#231942"></path></svg>