<svg id="visual" viewBox="0 0 1920 200" width="1920" height="200" xmlns="http://www.w3.org/2000/svg" xmlns:xlink="http://www.w3.org/1999/xlink" version="1.1"><path d="M0 80L32 80.7C64 81.3 128 82.7 192 89.8C256 97 320 110 384 108.5C448 107 512 91 576 83C640 75 704 75 768 69.5C832 64 896 53 960 60.3C1024 67.7 1088 93.3 1152 98.2C1216 103 1280 87 1344 74C1408 61 1472 51 1536 50.7C1600 50.3 1664 59.7 1728 62.7C1792 65.7 1856 62.3 1888 60.7L1920 59L1920 201L1888 201C1856 201 1792 201 1728 201C1664 201 1600 201 1536 201C1472 201 1408 201 1344 201C1280 201 1216 201 1152 201C1088 201 1024 201 960 201C896 201 832 201 768 201C704 201 640 201 576 201C512 201 448 201 384 201C320 201 256 201 192 201C128 201 64 201 32 201L0 201Z" fill="#5e548e"></path><path d="M0 79L32 86.3C64 93.7 128 108.3 192 118.7C256 129 320 135 384 129C448 123 512 105 576 98C640 91 704 95 768 97.8C832 100.7 896 102.3 960 99.3C1024 96.3 1088 88.7 1152 91.2C1216 93.7 1280 106.3 1344 117.7C1408 129 1472 139 1536 134.2C1600 129.3 1664 109.7 1728 108.3C1792 107 1856 124 1888 132.5L1920 141L1920 201L1888 201C1856 201 1792 201 1728 201C1664 201 1600 201 1536 201C1472 201 1408 201 1344 201C1280 201 1216 201 1152 201C1088 201 1024 201 960 201C896 201 832 201 768 201C704 201 640 201 576 201C512 201 448 201 384 201C320 201 256 201 192 201C128 201 64 201 32 201L0 201Z" fill="#403567"></path><path d="M0 148L32 151.8C64 155.7 128 163.3 192 160.5C256 157.7 320 144.3 384 141.5C448 138.7 512 146.3 576 148.3C640 150.3 704 146.7 768 142C832 137.3 896 131.7 960 136.2C1024 140.7 1088 155.3 1152 154.5C1216 153.7 1280 137.3 1344 137.5C1408 137.7 1472 154.3 1536 163.7C1600 173 1664 175 1728 169.7C1792 164.3 1856 151.7 1888 145.3L1920 139L1920 201L1888 201C1856 201 1792 201 1728 201C1664 201 1600 201 1536 201C1472 201 1408 201 1344 201C1280 201 1216 201 1152 201C1088 201 1024 201 960 201C896 201 832 201 768 201C704 201 640 201 576 201C512 201 448 201 384 201C320 201 256 201 192 201C128 201 64 201 32 201L0 201Z" fill="#231942"></path></svg>