<svg id="visual" viewBox="0 0 1920 600" width="1920" height="600" xmlns="http://www.w3.org/2000/svg" xmlns:xlink="http://www.w3.org/1999/xlink" version="1.1"><path d="M0 462L45.7 467.5C91.3 473 182.7 484 274.2 489.5C365.7 495 457.3 495 548.8 488.3C640.3 481.7 731.7 468.3 823 468.5C914.3 468.7 1005.7 482.3 1097 483.3C1188.3 484.3 1279.7 472.7 1371.2 472.3C1462.7 472 1554.3 483 1645.8 488.3C1737.3 493.7 1828.7 493.3 1874.3 493.2L1920 493L1920 601L1874.3 601C1828.7 601 1737.3 601 1645.8 601C1554.3 601 1462.7 601 1371.2 601C1279.7 601 1188.3 601 1097 601C1005.7 601 914.3 601 823 601C731.7 601 640.3 601 548.8 601C457.3 601 365.7 601 274.2 601C182.7 601 91.3 601 45.7 601L0 601Z" fill="#5e548e"></path><path d="M0 508L45.7 507.2C91.3 506.3 182.7 504.7 274.2 503.8C365.7 503 457.3 503 548.8 506.3C640.3 509.7 731.7 516.3 823 522.7C914.3 529 1005.7 535 1097 534.3C1188.3 533.7 1279.7 526.3 1371.2 520.8C1462.7 515.3 1554.3 511.7 1645.8 511.2C1737.3 510.7 1828.7 513.3 1874.3 514.7L1920 516L1920 601L1874.3 601C1828.7 601 1737.3 601 1645.8 601C1554.3 601 1462.7 601 1371.2 601C1279.7 601 1188.3 601 1097 601C1005.7 601 914.3 601 823 601C731.7 601 640.3 601 548.8 601C457.3 601 365.7 601 274.2 601C182.7 601 91.3 601 45.7 601L0 601Z" fill="#403567"></path><path d="M0 552L45.7 554C91.3 556 182.7 560 274.2 561.7C365.7 563.3 457.3 562.7 548.8 560.3C640.3 558 731.7 554 823 556C914.3 558 1005.7 566 1097 564C1188.3 562 1279.7 550 1371.2 544.2C1462.7 538.3 1554.3 538.7 1645.8 543C1737.3 547.3 1828.7 555.7 1874.3 559.8L1920 564L1920 601L1874.3 601C1828.7 601 1737.3 601 1645.8 601C1554.3 601 1462.7 601 1371.2 601C1279.7 601 1188.3 601 1097 601C1005.7 601 914.3 601 823 601C731.7 601 640.3 601 548.8 601C457.3 601 365.7 601 274.2 601C182.7 601 91.3 601 45.7 601L0 601Z" fill="#231942"></path></svg>